<svg xmlns="http://www.w3.org/2000/svg" width="64" height="64" viewBox="0 0 1024 1024">
  <defs>
    <style>
      .cls-1 {
        fill: #dcdcdc;
        fill-rule: evenodd;
      }
    </style>
  </defs>
  <path id="_3man_1" data-name="3man 1" class="cls-1" d="M485.373,44.09c146.095-2.569,238.8,39.944,319.915,101.276,35.063,26.511,73.875,72.683,53.478,138.538C852.45,304.3,839.894,322.063,826.3,335.5l-16.234,14.331c20.99-10.415,53.238-17.478,82.127-9.554,44.525,12.213,77.432,41.3,88.813,85.989,5.7,22.385,3.709,44.747,7.639,69.747,4.47,28.432,2,65.745-2.864,91.722-30.7,164.1-108.631,270.4-229.193,343.958-39.292,23.972-97.52,62.449-160.436,42.994-28.914-8.94-53.6-29.607-67.8-53.5-3.988-6.709-14.445-45.43-18.145-47.772-0.631,54.605-47.464,91.769-92.632,103.187l-47.749,1.911c-15.194.522-81.019-33.062-94.542-41.084C154.565,865.815,73.236,759.2,40.357,599.2c-8.559-41.651-9.81-144.333,4.775-179.623,25.026-60.554,94.395-107.784,173.8-67.836-17.123-17.735-36.99-28.94-47.748-53.5-17.16-39.18-8.689-87.6,11.459-116.563,42.108-60.538,126.768-100.015,206.274-122.3L452.9,46.956Zm-212,470.075c-105.183-.84-182.356,117.414-124.146,215.928,27.551,46.626,99.358,91.726,174.76,62.1,33.6-13.2,51.909-35.157,72.578-61.148,49.592,23.506,111.613,45.87,113.641,115.608h2.865c3.285-56.358,43.543-84.742,86.9-102.232,8.214-3.313,20.709-13.071,28.649-12.421,5.508,15.554,20.368,27.858,32.469,37.262,70.68,54.927,169.2,33.622,211.049-33.44,61.57-98.653-11.8-220.917-121.281-220.706-3.436-47.761-9.461-90.626,13.369-125.162,9.193-13.906,25.514-22,34.379-35.351-41.373,20.617-93.053,11.591-127.011-9.555-11.864-7.388-20.395-19.854-34.379-25.8,5.415-16.243,13.473-30.907,17.19-50.638,17.588-93.359-59.493-151.545-130.831-163.379-17.917-2.973-37.187,1.952-49.659,5.732-60.376,18.3-93.809,58.422-105.047,126.118-5.8,34.921,10.675,59.876,18.145,82.167-13.451,5.532-22.319,17.125-33.424,24.842-32.163,22.35-85.654,30.773-127.011,11.465q0.477,0.956.955,1.911c34.565,24.947,47.9,57.515,51.568,114.652C279.833,483.566,273.659,499.824,273.369,514.165ZM501.607,129.123C590.419,127.69,664.924,212.25,620.024,301.1c-18.348,36.309-50.1,59.232-97.407,66.881-82.46,13.33-154.16-80.906-123.191-160.514a124.155,124.155,0,0,1,71.622-71.657ZM221.8,352.7l1.91,1.911Zm41.064,186.31c88.812-1.433,163.316,83.127,118.416,171.979-18.348,36.308-50.1,59.232-97.407,66.88-82.46,13.331-154.16-80.906-123.191-160.513a124.161,124.161,0,0,1,71.623-71.658Zm477.485,0c88.812-1.433,163.316,83.127,118.416,171.979-18.348,36.308-50.095,59.232-97.407,66.88C678.9,791.2,607.2,696.959,638.168,617.352a124.164,124.164,0,0,1,71.623-71.658Z"/>
</svg>
